<?xml version="1.0" encoding="utf-8"?>
<!-- Generator: Adobe Illustrator 24.0.1, SVG Export Plug-In . SVG Version: 6.00 Build 0)  -->
<svg version="1.0" id="Layer_1" xmlns="http://www.w3.org/2000/svg" xmlns:xlink="http://www.w3.org/1999/xlink" x="0px" y="0px"
	 viewBox="0 0 327.64 137.69" style="enable-background:new 0 0 327.64 137.69;" xml:space="preserve">
<style type="text/css">
	.st0{fill:#ffffff;}
	.st1{fill:#ffffff;}
</style>
<g>
	<path class="st0" d="M287.23,46.23h2.24c3.36,0,6.61,2.5,6.61,6.87s-3.25,6.87-6.61,6.87h-2.24V46.23z M283.21,63.12h5.49
		c6.15,0,11.58-2.07,11.58-10.02c0-7.96-5.43-10.02-11.58-10.02h-5.49V63.12z M262.85,63.12h3.85V48.13h0.06l7.67,14.99h4.91V43.07
		h-3.85v14.99h-0.06l-7.64-14.99h-4.94L262.85,63.12L262.85,63.12z M242.74,55.88c0,5.37,3.04,7.58,8.19,7.58
		c5.14,0,8.18-2.21,8.18-7.58V43.07h-4.02v11.57c0,3.42-1.09,5.66-4.16,5.66s-4.17-2.24-4.17-5.66V43.07h-4.02L242.74,55.88
		L242.74,55.88z M228.52,63.12h4.02v-8.79h6.78v-3.16h-6.78v-4.94h7.12v-3.16h-11.14L228.52,63.12L228.52,63.12z"/>
	<path class="st1" d="M210.63,63.12h4.02v-8.33h1.29c1.69,0,2.21,0.58,2.79,2.07l2.41,6.26h4.48l-3.22-7.84
		c-0.4-0.89-1.03-1.98-2.12-2.07v-0.06c2.56-0.34,4.14-2.3,4.14-4.65c0-5.57-5.14-5.43-9.45-5.43h-4.34L210.63,63.12L210.63,63.12z
		 M214.65,46.23h1.32c2.01,0,4.25,0.2,4.25,2.61c0,2.5-2.27,2.79-4.25,2.79h-1.32V46.23z M195.29,63.12h11.89v-3.16h-7.87v-5.63
		h7.15v-3.16h-7.15v-4.94h7.81v-3.16h-11.83L195.29,63.12L195.29,63.12z M178.98,63.12H183v-7.61h1.7c4.31,0,7.73-1.69,7.73-6.38
		c0-4.8-3.99-6.06-8.36-6.06h-5.08v20.05H178.98z M183,46.23h1.41c2.07,0,3.82,0.8,3.82,3.13c0,2.33-1.81,2.99-3.82,2.99H183V46.23z
		 M159.02,55.88c0,5.37,3.04,7.58,8.19,7.58c5.14,0,8.19-2.21,8.19-7.58V43.07h-4.02v11.57c0,3.42-1.09,5.66-4.17,5.66
		c-3.07,0-4.17-2.24-4.17-5.66V43.07h-4.02V55.88z M154.91,43.45c-1.46-0.49-3.07-0.72-4.8-0.72c-3.53,0-7.01,1.64-7.01,6.12
		c0,6.63,8.79,5.06,8.79,8.88c0,1.81-2.04,2.58-3.56,2.58c-1.58,0-3.16-0.49-4.54-1.23l-0.37,3.62c1.98,0.49,2.96,0.78,5.14,0.78
		c4.05,0,7.53-1.67,7.53-6.06c0-6.72-8.79-5.26-8.79-8.73c0-2.18,1.78-2.79,3.16-2.79c1.41,0,2.82,0.32,4.08,0.86L154.91,43.45z"/>
</g>
<path class="st0" d="M126.5,63.12h13.9v-3.16h-9.71l9.51-13.62v-3.27h-13.33v3.16h9.05l-9.42,13.62V63.12z M106.86,63.12h3.85V48.13
	h0.06l7.67,14.99h4.91V43.07h-3.85v14.99h-0.06l-7.64-14.99h-4.94V63.12z"/>
<polygon class="st1" points="98.51,65.82 59.42,26.74 59.42,55.79 69.48,65.85 "/>
<polygon class="st1" points="69.22,69.85 27.87,111.2 57.11,111.19 98.89,69.76 "/>
<g>
	<path class="st0" d="M260.06,98.01c0-1.53,1.48-5.97,3.49-5.97c0.83,0,1.06,0.67,1.06,1.48c0,1.5-1.51,5.58-3.56,5.58
		C260.4,99.1,260.06,98.62,260.06,98.01 M265.33,91.83l-0.41,1.36h-0.03c0-0.89-0.45-1.54-1.36-1.54c-2.29,0-4.98,3.09-4.98,5.65
		c0,1.78,1.04,2.37,1.96,2.37c1.4,0,2.37-0.95,3.01-2.03l0.03,0.03c-0.12,0.37-0.19,0.75-0.19,1.04c0,0.5,0.22,0.95,0.89,0.95
		c1.23,0,2.36-1.59,2.88-2.57l-0.33-0.23c-0.33,0.67-1.17,1.78-1.59,1.78c-0.22,0-0.27-0.17-0.27-0.31c0-0.16,0.02-0.44,0.39-1.76
		l1.34-4.73L265.33,91.83L265.33,91.83z M255.69,93.5c0,1.15-0.94,4.6-1.67,5.26c-0.42,0.39-0.75,0.52-1.37,0.52
		c-0.97,0-1.42-0.5-1.42-1.47c0-1.15,0.94-4.6,1.67-5.26c0.42-0.39,0.75-0.51,1.37-0.51C255.24,92.03,255.69,92.53,255.69,93.5
		 M257.09,94.81c0-1.73-1-3.17-2.89-3.17c-2.57,0-4.38,2.35-4.38,4.85c0,1.73,1.01,3.17,2.88,3.17
		C255.3,99.66,257.09,97.31,257.09,94.81 M244.64,92.22l-1.95,7.25h1.45l0.42-1.75c0.94-3.84,2.82-5.6,3.71-5.6
		c0.17,0,0.31,0.11,0.31,0.28c0,0.33-0.36,0.51-0.36,0.95c0,0.39,0.29,0.62,0.83,0.62c0.55,0,0.94-0.45,0.94-1.2
		c0-0.67-0.58-1.14-1.31-1.14c-1.29,0-2.14,1.12-2.84,2.03l-0.03-0.03l0.47-1.9c-0.58,0.06-1.17,0.09-1.75,0.09h-1.25l-0.06,0.39
		h1.42V92.22z M234.48,98.01c0-1.53,1.48-5.97,3.49-5.97c0.83,0,1.06,0.67,1.06,1.48c0,1.5-1.51,5.58-3.56,5.58
		C234.83,99.1,234.48,98.62,234.48,98.01 M239.75,91.83l-0.41,1.36h-0.03c0-0.89-0.45-1.54-1.36-1.54c-2.29,0-4.97,3.09-4.97,5.65
		c0,1.78,1.05,2.37,1.96,2.37c1.4,0,2.37-0.95,3.01-2.03l0.03,0.03c-0.12,0.37-0.19,0.75-0.19,1.04c0,0.5,0.22,0.95,0.89,0.95
		c1.23,0,2.36-1.59,2.89-2.57l-0.33-0.23c-0.33,0.67-1.17,1.78-1.59,1.78c-0.22,0-0.26-0.17-0.26-0.31c0-0.16,0.01-0.44,0.39-1.76
		l1.34-4.73L239.75,91.83L239.75,91.83z M230.77,92.84c0,1.56-2.15,2.34-3.15,2.68c0.7-2.09,1.37-3.49,2.42-3.49
		C230.5,92.03,230.77,92.39,230.77,92.84 M231.33,96.76c-0.62,1.11-1.64,2.34-2.85,2.34c-0.84,0-1.25-0.5-1.25-1.45
		c0-0.56,0.09-1.09,0.23-1.64c1.22-0.4,4.52-1.47,4.52-3.06c0-0.93-0.84-1.31-1.67-1.31c-2.39,0-4.59,2.84-4.59,5.54
		c0,1.5,0.64,2.48,2.2,2.48c1.89,0,3.1-1.47,3.76-2.79L231.33,96.76z M222.21,92.22l-1.26,4.48c-0.33,1.17-0.47,1.65-0.47,1.98
		c0,0.52,0.41,0.98,1.01,0.98c1.4,0,2.43-1.65,3.15-2.68l-0.33-0.23c-0.48,0.8-1.36,1.98-1.95,1.98c-0.22,0-0.39-0.16-0.39-0.34
		c0-0.2,0.05-0.34,0.09-0.51l1.59-5.65h1.65l0.11-0.39h-1.64l0.6-1.96h-1.5l-0.55,1.96h-1.45l-0.12,0.39h1.46V92.22z M217.9,93.5
		c0,1.15-0.94,4.6-1.67,5.26c-0.42,0.39-0.75,0.52-1.37,0.52c-0.97,0-1.42-0.5-1.42-1.47c0-1.15,0.94-4.6,1.67-5.26
		c0.42-0.39,0.75-0.51,1.37-0.51C217.45,92.03,217.9,92.53,217.9,93.5 M219.31,94.81c0-1.73-1-3.17-2.89-3.17
		c-2.57,0-4.38,2.35-4.38,4.85c0,1.73,1.01,3.17,2.88,3.17C217.51,99.66,219.31,97.31,219.31,94.81 M204.99,94.9l2.95-4.32h0.03
		v4.32H204.99z M209.55,88.13l-7.96,10.95h-1l-0.11,0.39h3.2l0.11-0.39h-1.65l2.59-3.79h3.24v3.79h-1.56l-0.11,0.39h4.83l0.11-0.39
		h-1.56l0.25-10.95H209.55z M195.9,93.5c0,1.15-0.94,4.6-1.67,5.26c-0.42,0.39-0.75,0.52-1.37,0.52c-0.97,0-1.42-0.5-1.42-1.47
		c0-1.15,0.93-4.6,1.67-5.26c0.42-0.39,0.75-0.51,1.37-0.51C195.45,92.03,195.9,92.53,195.9,93.5 M197.3,94.81
		c0-1.73-1-3.17-2.88-3.17c-2.57,0-4.38,2.35-4.38,4.85c0,1.73,1.01,3.17,2.88,3.17C195.51,99.66,197.3,97.31,197.3,94.81
		 M176.83,98.01c0-1.53,1.48-5.97,3.49-5.97c0.83,0,1.06,0.67,1.06,1.48c0,1.5-1.51,5.58-3.56,5.58
		C177.17,99.1,176.83,98.62,176.83,98.01 M182.1,91.83l-0.4,1.36h-0.03c0-0.89-0.45-1.54-1.36-1.54c-2.29,0-4.98,3.09-4.98,5.65
		c0,1.78,1.04,2.37,1.96,2.37c1.4,0,2.37-0.95,3.01-2.03l0.03,0.03c-0.12,0.37-0.19,0.75-0.19,1.04c0,0.5,0.22,0.95,0.89,0.95
		c1.23,0,2.35-1.59,2.88-2.57l-0.33-0.23c-0.33,0.67-1.17,1.78-1.59,1.78c-0.22,0-0.27-0.17-0.27-0.31c0-0.16,0.02-0.44,0.39-1.76
		l1.34-4.73L182.1,91.83L182.1,91.83z M173.85,91.83h-1.42l-0.55,1.9c-0.9,3.17-2.65,5.18-3.74,5.18c-0.31,0-0.56-0.14-0.56-0.7
		c0-0.16,0.03-0.5,0.2-1.15l1.44-5.32c-0.58,0.06-1.17,0.09-1.75,0.09h-1.12l-0.09,0.39h1.42l-1.37,4.88
		c-0.09,0.34-0.22,0.95-0.22,1.15c0,0.97,0.56,1.4,1.36,1.4c1.4,0,2.6-1.31,3.45-2.64l0.03,0.03c-0.23,0.81-0.33,1.33-0.33,1.68
		c0,0.61,0.39,0.92,0.97,0.92c1.4,0,2.37-1.62,2.98-2.7l-0.3-0.22c-0.25,0.42-1.23,1.98-1.78,1.98c-0.22,0-0.37-0.17-0.37-0.39
		c0-0.19,0.08-0.58,0.14-0.79L173.85,91.83z M162.24,92.22l-1.26,4.48c-0.33,1.17-0.47,1.65-0.47,1.98c0,0.52,0.41,0.98,1.01,0.98
		c1.4,0,2.43-1.65,3.15-2.68l-0.33-0.23c-0.48,0.8-1.36,1.98-1.95,1.98c-0.22,0-0.39-0.16-0.39-0.34c0-0.2,0.05-0.34,0.09-0.51
		l1.59-5.65h1.65l0.11-0.39h-1.64l0.6-1.96h-1.5l-0.55,1.96h-1.45l-0.12,0.39h1.46V92.22z M152.1,98.01c0-1.53,1.48-5.97,3.49-5.97
		c0.83,0,1.06,0.67,1.06,1.48c0,1.5-1.51,5.58-3.56,5.58C152.45,99.1,152.1,98.62,152.1,98.01 M157.38,91.83l-0.41,1.36h-0.03
		c0-0.89-0.45-1.54-1.36-1.54c-2.29,0-4.98,3.09-4.98,5.65c0,1.78,1.04,2.37,1.97,2.37c1.4,0,2.37-0.95,3.01-2.03l0.03,0.03
		c-0.12,0.37-0.19,0.75-0.19,1.04c0,0.5,0.22,0.95,0.89,0.95c1.23,0,2.35-1.59,2.89-2.57l-0.33-0.23c-0.33,0.67-1.17,1.78-1.59,1.78
		c-0.22,0-0.27-0.17-0.27-0.31c0-0.16,0.02-0.44,0.39-1.76l1.34-4.73L157.38,91.83L157.38,91.83z M136.27,99.47h1.47l0.84-3.15
		c0.73-2.76,2.56-4.12,3.29-4.12c0.44,0,0.69,0.3,0.69,0.83c0,0.38-0.11,0.98-0.27,1.53l-1.33,4.91h1.5l0.95-3.71
		c0.44-1.72,2.09-3.56,3.29-3.56c0.44,0,0.67,0.2,0.67,0.55c0,0.22-0.09,0.59-0.19,0.9l-1.22,3.88c-0.19,0.58-0.22,0.89-0.22,1.11
		c0,0.56,0.45,1.01,1.06,1.01c1.61,0,2.43-1.64,2.92-2.95l-0.39-0.08c-0.19,0.61-0.98,2.28-1.75,2.28c-0.22,0-0.34-0.14-0.34-0.36
		c0-0.17,0.06-0.53,0.28-1.26l1.12-3.65c0.09-0.31,0.12-0.5,0.12-0.67c0-0.89-0.8-1.33-1.61-1.33c-1.23,0-2.54,1.12-3.1,2h-0.06
		c0.09-0.23,0.14-0.52,0.14-0.77c0-0.89-0.72-1.23-1.51-1.23c-1.58,0-2.45,1.11-3.34,2.23h-0.03l0.53-2.14
		c-0.58,0.06-1.17,0.09-1.75,0.09h-1.14l-0.08,0.39h1.36L136.27,99.47z M134.82,91.83h-1.42l-0.54,1.9
		c-0.9,3.17-2.65,5.18-3.74,5.18c-0.31,0-0.56-0.14-0.56-0.7c0-0.16,0.03-0.5,0.2-1.15l1.44-5.32c-0.58,0.06-1.17,0.09-1.75,0.09
		h-1.12l-0.09,0.39h1.42l-1.37,4.88c-0.09,0.34-0.22,0.95-0.22,1.15c0,0.97,0.56,1.4,1.36,1.4c1.4,0,2.6-1.31,3.45-2.64l0.03,0.03
		c-0.23,0.81-0.33,1.33-0.33,1.68c0,0.61,0.39,0.92,0.97,0.92c1.4,0,2.37-1.62,2.98-2.7l-0.3-0.22c-0.25,0.42-1.23,1.98-1.78,1.98
		c-0.22,0-0.38-0.17-0.38-0.39c0-0.19,0.08-0.58,0.14-0.79L134.82,91.83z M118.43,98.01c0-1.53,1.48-5.97,3.49-5.97
		c0.83,0,1.06,0.67,1.06,1.48c0,1.5-1.51,5.58-3.56,5.58C118.77,99.1,118.43,98.62,118.43,98.01 M123.7,91.83l-0.41,1.36h-0.03
		c0-0.89-0.45-1.54-1.36-1.54c-2.29,0-4.98,3.09-4.98,5.65c0,1.78,1.04,2.37,1.97,2.37c1.4,0,2.37-0.95,3.01-2.03l0.03,0.03
		c-0.12,0.37-0.19,0.75-0.19,1.04c0,0.5,0.22,0.95,0.89,0.95c1.23,0,2.36-1.59,2.88-2.57l-0.33-0.23c-0.33,0.67-1.17,1.78-1.59,1.78
		c-0.22,0-0.26-0.17-0.26-0.31c0-0.16,0.01-0.44,0.39-1.76l1.34-4.73L123.7,91.83L123.7,91.83z M108.17,88.71h1.58l-2.99,10.37
		h-1.39l-0.11,0.39H110l0.11-0.39h-1.59l1.5-5.29h1.36l1.51,5.29h-1.45l-0.11,0.39h4.77l0.11-0.39h-1.4l-2.04-6.63l3.03-3.74h1.22
		l0.11-0.39h-3.03l-0.09,0.39h1.23l-3.74,4.7h-1.33l1.37-4.7h1.5l0.11-0.39h-4.85L108.17,88.71z M154.84,89.01h3.74l0.22-0.84h-3.71
		L154.84,89.01z"/>
	<path class="st0" d="M292.7,82.41c0-1.53,1.48-5.97,3.49-5.97c0.83,0,1.06,0.67,1.06,1.48c0,1.5-1.51,5.58-3.55,5.58
		C293.04,83.5,292.7,83.02,292.7,82.41 M297.97,76.23l-0.41,1.36h-0.03c0-0.89-0.45-1.54-1.36-1.54c-2.29,0-4.98,3.09-4.98,5.65
		c0,1.78,1.04,2.37,1.96,2.37c1.4,0,2.37-0.95,3.01-2.03l0.03,0.03c-0.12,0.37-0.19,0.75-0.19,1.04c0,0.5,0.22,0.95,0.89,0.95
		c1.23,0,2.35-1.59,2.88-2.57l-0.33-0.23c-0.33,0.67-1.17,1.78-1.59,1.78c-0.22,0-0.27-0.17-0.27-0.31c0-0.16,0.02-0.44,0.39-1.76
		l1.34-4.73L297.97,76.23L297.97,76.23z M281.84,83.88h1.47l0.95-3.71c0.44-1.72,2.09-3.56,3.29-3.56c0.44,0,0.67,0.2,0.67,0.55
		c0,0.22-0.09,0.59-0.19,0.91l-1.22,3.88c-0.19,0.58-0.22,0.89-0.22,1.11c0,0.56,0.45,1.01,1.06,1.01c1.61,0,2.43-1.64,2.92-2.95
		l-0.39-0.08c-0.19,0.61-0.98,2.28-1.75,2.28c-0.22,0-0.34-0.14-0.34-0.36c0-0.17,0.06-0.53,0.28-1.26l1.12-3.65
		c0.09-0.31,0.12-0.5,0.12-0.67c0-0.89-0.8-1.33-1.61-1.33c-1.23,0-2.54,1.12-3.1,2h-0.03l0.59-1.9c-0.58,0.06-1.17,0.09-1.75,0.09
		h-1.17l-0.08,0.39h1.41L281.84,83.88z M273.95,82.41c0-1.53,1.48-5.97,3.49-5.97c0.83,0,1.06,0.67,1.06,1.48
		c0,1.5-1.51,5.58-3.56,5.58C274.29,83.5,273.95,83.02,273.95,82.41 M279.22,76.23l-0.4,1.36h-0.03c0-0.89-0.45-1.54-1.36-1.54
		c-2.29,0-4.98,3.09-4.98,5.65c0,1.78,1.04,2.37,1.96,2.37c1.4,0,2.37-0.95,3.01-2.03l0.03,0.03c-0.12,0.37-0.19,0.75-0.19,1.04
		c0,0.5,0.22,0.95,0.89,0.95c1.23,0,2.36-1.59,2.89-2.57l-0.33-0.23c-0.33,0.67-1.17,1.78-1.59,1.78c-0.22,0-0.26-0.17-0.26-0.31
		c0-0.16,0.01-0.44,0.39-1.76l1.34-4.73L279.22,76.23L279.22,76.23z M263.09,83.88h1.47l0.95-3.71c0.44-1.72,2.09-3.56,3.29-3.56
		c0.44,0,0.67,0.2,0.67,0.55c0,0.22-0.09,0.59-0.19,0.91l-1.21,3.88c-0.19,0.58-0.22,0.89-0.22,1.11c0,0.56,0.45,1.01,1.06,1.01
		c1.61,0,2.43-1.64,2.92-2.95l-0.39-0.08c-0.19,0.61-0.98,2.28-1.75,2.28c-0.22,0-0.34-0.14-0.34-0.36c0-0.17,0.06-0.53,0.28-1.26
		l1.12-3.65c0.09-0.31,0.12-0.5,0.12-0.67c0-0.89-0.79-1.33-1.61-1.33c-1.23,0-2.54,1.12-3.1,2v0.03l-0.03-0.03l1.85-5.41
		c-0.58,0.06-1.17,0.09-1.75,0.09h-1.26l-0.11,0.39h1.48L263.09,83.88z M260.89,73.61c0,0.48,0.41,0.89,0.89,0.89
		c0.48,0,0.89-0.41,0.89-0.89s-0.2-0.89-0.68-0.89S260.89,73.13,260.89,73.61 M260.27,76.62l-1.48,5.3
		c-0.16,0.58-0.25,0.94-0.25,1.2c0,0.51,0.41,0.94,1.03,0.94c1.29,0,2.26-1.53,2.96-2.5l-0.31-0.22c-0.25,0.36-1.31,1.87-1.84,1.87
		c-0.22,0-0.34-0.12-0.34-0.31c0-0.11,0.05-0.33,0.14-0.66l1.7-6.11c-0.58,0.06-1.17,0.09-1.75,0.09h-1.17l-0.08,0.39L260.27,76.62
		L260.27,76.62z M248.96,83.88h1.47l0.95-3.71c0.44-1.72,2.09-3.56,3.29-3.56c0.44,0,0.67,0.2,0.67,0.55c0,0.22-0.09,0.59-0.19,0.91
		l-1.22,3.88c-0.19,0.58-0.22,0.89-0.22,1.11c0,0.56,0.45,1.01,1.06,1.01c1.61,0,2.43-1.64,2.92-2.95l-0.39-0.08
		c-0.19,0.61-0.98,2.28-1.75,2.28c-0.22,0-0.34-0.14-0.34-0.36c0-0.17,0.06-0.53,0.28-1.26l1.12-3.65c0.09-0.31,0.12-0.5,0.12-0.67
		c0-0.89-0.79-1.33-1.61-1.33c-1.23,0-2.54,1.12-3.1,2h-0.03l0.59-1.9c-0.58,0.06-1.17,0.09-1.75,0.09h-1.17l-0.08,0.39h1.39
		L248.96,83.88z M247.04,77.25c0,1.56-2.15,2.34-3.15,2.68c0.7-2.09,1.37-3.49,2.42-3.49C246.78,76.44,247.04,76.79,247.04,77.25
		 M247.61,81.16c-0.62,1.11-1.64,2.34-2.85,2.34c-0.84,0-1.25-0.5-1.25-1.45c0-0.56,0.09-1.09,0.23-1.64
		c1.22-0.41,4.52-1.47,4.52-3.06c0-0.94-0.84-1.31-1.67-1.31c-2.39,0-4.58,2.84-4.58,5.54c0,1.5,0.64,2.48,2.2,2.48
		c1.89,0,3.1-1.47,3.76-2.79L247.61,81.16z M234.18,73.11h1.58l-3,10.37h-1.39l-0.11,0.39h4.8l0.11-0.39h-1.65l1.23-4.3h1.48
		c4.12,0,4.99-2.76,4.99-4.02c0-2.08-1.45-2.43-2.85-2.43h-5.08L234.18,73.11z M238.24,73.11c1.37,0,2.12,0.19,2.12,1.81
		c0,0.97-0.45,3.87-3.23,3.87h-1.25l1.67-5.68H238.24z M221.93,82.41c0-1.53,1.48-5.97,3.49-5.97c0.83,0,1.06,0.67,1.06,1.48
		c0,1.5-1.51,5.58-3.56,5.58C222.27,83.5,221.93,83.02,221.93,82.41 M227.2,76.23l-0.41,1.36h-0.03c0-0.89-0.45-1.54-1.36-1.54
		c-2.29,0-4.97,3.09-4.97,5.65c0,1.78,1.04,2.37,1.96,2.37c1.4,0,2.37-0.95,3.01-2.03l0.03,0.03c-0.12,0.37-0.19,0.75-0.19,1.04
		c0,0.5,0.22,0.95,0.89,0.95c1.23,0,2.35-1.59,2.88-2.57l-0.33-0.23c-0.33,0.67-1.17,1.78-1.59,1.78c-0.22,0-0.26-0.17-0.26-0.31
		c0-0.16,0.01-0.44,0.39-1.76l1.34-4.73L227.2,76.23L227.2,76.23z M219.26,76.23h-1.42l-0.55,1.9c-0.91,3.17-2.65,5.18-3.74,5.18
		c-0.31,0-0.56-0.14-0.56-0.7c0-0.16,0.03-0.5,0.2-1.15l1.43-5.32c-0.58,0.06-1.17,0.09-1.75,0.09h-1.12l-0.09,0.39h1.42l-1.37,4.88
		c-0.09,0.34-0.22,0.95-0.22,1.16c0,0.97,0.56,1.4,1.36,1.4c1.4,0,2.6-1.31,3.45-2.64l0.03,0.03c-0.23,0.81-0.33,1.33-0.33,1.68
		c0,0.61,0.39,0.92,0.97,0.92c1.4,0,2.37-1.62,2.98-2.7l-0.29-0.22c-0.25,0.42-1.23,1.98-1.78,1.98c-0.22,0-0.38-0.17-0.38-0.39
		c0-0.19,0.08-0.58,0.14-0.8L219.26,76.23z M201.7,83.88h1.47l0.95-3.71c0.44-1.72,2.09-3.56,3.29-3.56c0.44,0,0.67,0.2,0.67,0.55
		c0,0.22-0.09,0.59-0.19,0.91l-1.22,3.88c-0.19,0.58-0.22,0.89-0.22,1.11c0,0.56,0.45,1.01,1.06,1.01c1.61,0,2.43-1.64,2.92-2.95
		l-0.39-0.08c-0.19,0.61-0.98,2.28-1.75,2.28c-0.22,0-0.34-0.14-0.34-0.36c0-0.17,0.06-0.53,0.28-1.26l1.12-3.65
		c0.09-0.31,0.12-0.5,0.12-0.67c0-0.89-0.8-1.33-1.61-1.33c-1.23,0-2.54,1.12-3.1,2v0.03l-0.03-0.03l1.64-5.41
		c-0.58,0.06-1.17,0.09-1.75,0.09h-1.26l-0.11,0.39h1.48L201.7,83.88z M194.49,82.41c0-1.53,1.48-5.97,3.49-5.97
		c0.83,0,1.06,0.67,1.06,1.48c0,1.5-1.51,5.58-3.56,5.58C194.83,83.5,194.49,83.02,194.49,82.41 M199.76,76.23l-0.4,1.36h-0.03
		c0-0.89-0.45-1.54-1.36-1.54c-2.29,0-4.98,3.09-4.98,5.65c0,1.78,1.05,2.37,1.96,2.37c1.4,0,2.37-0.95,3.01-2.03l0.03,0.03
		c-0.12,0.37-0.19,0.75-0.19,1.04c0,0.5,0.22,0.95,0.89,0.95c1.23,0,2.36-1.59,2.89-2.57l-0.33-0.23c-0.33,0.67-1.17,1.78-1.59,1.78
		c-0.22,0-0.26-0.17-0.26-0.31c0-0.16,0.01-0.44,0.39-1.76l1.34-4.73L199.76,76.23L199.76,76.23z M184.84,75.87h0.44
		c0.4-1.11,1.14-2.76,3.54-2.76h0.84l-3.01,10.37h-1.51l-0.11,0.39h5.07l0.11-0.39h-1.76l3.01-10.37c1.67,0,2.93,0,2.93,2.03
		c0,0.23-0.06,0.67-0.12,0.97h0.41l0.78-3.39h-9.62L184.84,75.87z M179.1,73.61c0,0.48,0.41,0.89,0.89,0.89s0.89-0.41,0.89-0.89
		s-0.4-0.89-0.89-0.89S179.1,73.13,179.1,73.61 M178.47,76.62l-1.48,5.3c-0.16,0.58-0.25,0.94-0.25,1.2c0,0.51,0.41,0.94,1.03,0.94
		c1.29,0,2.26-1.53,2.96-2.5l-0.31-0.22c-0.25,0.36-1.31,1.87-1.84,1.87c-0.22,0-0.34-0.12-0.34-0.31c0-0.11,0.05-0.33,0.14-0.66
		l1.7-6.11c-0.58,0.06-1.17,0.09-1.75,0.09h-1.17l-0.08,0.39L178.47,76.62L178.47,76.62z M170.52,73.11l-3.21,10.76h1.59l1.31-4.69
		h0.55c0.55,0,1.47,0,1.47,0.83c0,0.87-0.48,1.98-0.48,2.92c0,0.67,0.53,1.14,1.31,1.14c1.26,0,2.25-1.36,2.64-2.62
		c-0.02,0-0.03-0.02-0.05-0.02l-0.3-0.14c-0.25,0.66-0.94,2.12-1.78,2.12c-0.25,0-0.42-0.2-0.42-0.45c0-0.69,0.39-1.47,0.39-2.34
		c0-0.94-0.8-1.51-1.72-1.67v-0.03c0.78-0.12,1.75-2.23,2.42-2.23c0.12,0,0.23,0.02,0.23,0.17c0,0.11-0.08,0.3-0.08,0.44
		c0,0.28,0.2,0.53,0.66,0.53c0.42,0,0.66-0.28,0.66-0.8c0-0.59-0.55-0.9-1.08-0.9c-1.76,0-1.81,2.67-3.84,2.67h-0.47l1.9-6.16
		c-0.64,0.06-1.26,0.09-1.9,0.09h-1.17l-0.08,0.39h1.45V73.11z M159.55,82.41c0-1.53,1.48-5.97,3.49-5.97
		c0.83,0,1.06,0.67,1.06,1.48c0,1.5-1.51,5.58-3.56,5.58C159.9,83.5,159.55,83.02,159.55,82.41 M164.83,76.23l-0.41,1.36h-0.03
		c0-0.89-0.45-1.54-1.36-1.54c-2.29,0-4.98,3.09-4.98,5.65c0,1.78,1.04,2.37,1.96,2.37c1.4,0,2.37-0.95,3.01-2.03l0.03,0.03
		c-0.12,0.37-0.19,0.75-0.19,1.04c0,0.5,0.22,0.95,0.89,0.95c1.23,0,2.35-1.59,2.89-2.57l-0.33-0.23c-0.33,0.67-1.17,1.78-1.59,1.78
		c-0.22,0-0.27-0.17-0.27-0.31c0-0.16,0.02-0.44,0.39-1.76l1.34-4.73L164.83,76.23L164.83,76.23z M155.87,73.61
		c0,0.48,0.41,0.89,0.89,0.89s0.89-0.41,0.89-0.89s-0.41-0.89-0.89-0.89S155.87,73.13,155.87,73.61 M155.25,76.62l-1.48,5.3
		c-0.16,0.58-0.25,0.94-0.25,1.2c0,0.51,0.41,0.94,1.03,0.94c1.29,0,2.26-1.53,2.96-2.5l-0.31-0.22c-0.25,0.36-1.31,1.87-1.84,1.87
		c-0.22,0-0.34-0.12-0.34-0.31c0-0.11,0.05-0.33,0.14-0.66l1.7-6.11c-0.58,0.06-1.17,0.09-1.75,0.09h-1.17l-0.08,0.39L155.25,76.62
		L155.25,76.62z M150.21,76.62l-1.26,4.48c-0.33,1.17-0.47,1.65-0.47,1.98c0,0.51,0.4,0.98,1.01,0.98c1.4,0,2.43-1.65,3.15-2.68
		l-0.33-0.23c-0.48,0.79-1.36,1.98-1.95,1.98c-0.22,0-0.39-0.16-0.39-0.34c0-0.2,0.05-0.34,0.09-0.51l1.59-5.65h1.65l0.11-0.39
		h-1.64l0.56-1.96h-1.5l-0.51,1.96h-1.45l-0.12,0.39h1.46V76.62z M146.08,73.61c0,0.48,0.41,0.89,0.89,0.89s0.89-0.41,0.89-0.89
		s-0.41-0.89-0.89-0.89C146.48,72.72,146.08,73.13,146.08,73.61 M145.46,76.62l-1.48,5.3c-0.16,0.58-0.25,0.94-0.25,1.2
		c0,0.51,0.41,0.94,1.03,0.94c1.29,0,2.26-1.53,2.96-2.5l-0.31-0.22c-0.25,0.36-1.31,1.87-1.84,1.87c-0.22,0-0.34-0.12-0.34-0.31
		c0-0.11,0.05-0.33,0.14-0.66l1.7-6.11c-0.58,0.06-1.17,0.09-1.75,0.09h-1.17l-0.08,0.39L145.46,76.62L145.46,76.62z M135.63,82.41
		c0-1.53,1.48-5.97,3.49-5.97c0.83,0,1.06,0.67,1.06,1.48c0,1.5-1.51,5.58-3.56,5.58C135.97,83.5,135.63,83.02,135.63,82.41
		 M140.9,76.23l-0.41,1.36h-0.03c0-0.89-0.45-1.54-1.36-1.54c-2.29,0-4.98,3.09-4.98,5.65c0,1.78,1.04,2.37,1.96,2.37
		c1.4,0,2.37-0.95,3.01-2.03l0.03,0.03c-0.12,0.37-0.19,0.75-0.19,1.04c0,0.5,0.22,0.95,0.89,0.95c1.23,0,2.35-1.59,2.89-2.57
		l-0.33-0.23c-0.33,0.67-1.17,1.78-1.59,1.78c-0.22,0-0.27-0.17-0.27-0.31c0-0.16,0.02-0.44,0.39-1.76l1.34-4.73L140.9,76.23
		L140.9,76.23z M125.75,73.11h1.58l-3,10.37h-1.39l-0.11,0.39h4.74l0.11-0.39h-1.59l1.5-5.29h1.36l1.51,5.29h-1.45l-0.11,0.39h4.77
		l0.11-0.39h-1.4l-2.04-6.63l3.03-3.74h1.22l0.11-0.39h-3.02l-0.09,0.39h1.23l-3.74,4.7h-1.33l1.37-4.7h1.5l0.11-0.39h-4.85
		L125.75,73.11z M119.46,77.25c0,1.56-2.15,2.34-3.15,2.68c0.7-2.09,1.37-3.49,2.42-3.49C119.2,76.44,119.46,76.79,119.46,77.25
		 M120.03,81.16c-0.62,1.11-1.64,2.34-2.85,2.34c-0.84,0-1.25-0.5-1.25-1.45c0-0.56,0.09-1.09,0.23-1.64
		c1.22-0.41,4.52-1.47,4.52-3.06c0-0.94-0.84-1.31-1.67-1.31c-2.39,0-4.59,2.84-4.59,5.54c0,1.5,0.64,2.48,2.2,2.48
		c1.89,0,3.1-1.47,3.76-2.79L120.03,81.16z M106.14,75.87h0.44c0.41-1.11,1.14-2.76,3.54-2.76h0.84l-3.01,10.37h-1.51l-0.11,0.39
		h5.07l0.11-0.39h-1.76l3.01-10.37c1.67,0,2.93,0,2.93,2.03c0,0.23-0.06,0.67-0.12,0.97h0.41l0.78-3.39h-9.62L106.14,75.87z"/>
</g>
</svg>
