<?xml version="1.0" encoding="UTF-8"?>
<!-- Generator: Adobe Illustrator 26.0.3, SVG Export Plug-In . SVG Version: 6.00 Build 0)  -->
<svg version="1.1" id="Layer_1" xmlns="http://www.w3.org/2000/svg" xmlns:xlink="http://www.w3.org/1999/xlink" x="0px" y="0px" viewBox="0 0 1192.36 286.17" style="enable-background:new 0 0 1192.36 286.17;" xml:space="preserve">
<style type="text/css">
	.st0{fill:#FFFFFF;}
</style>
<g>
	<g>
		<path class="st0" d="M67.32,212.67l0.35-20.75c0.09-5.53,0-15.91-0.35-20.06l2.25-0.6l39.94,46.25v-23.95    c0-5.53-0.17-16.69-0.69-20.83c3.37,0,6.66-0.08,9.6-0.43c-0.35,2.51-0.61,9.43-0.69,12.8l-0.6,36.49    c-0.09,3.37-0.09,10.37,0.17,12.79l-2.24,0.6l-39.6-45.57v31.65c0,3.37,0.09,10.03,0.35,12.45H66.3    C66.81,229.35,67.24,218.29,67.32,212.67"/>
		<path class="st0" d="M156.37,209.38c-0.86-6.66-3.63-10.2-9.59-10.2c-6.4,0-10.47,4.66-11.59,10.81L156.37,209.38z M158.62,215.26    l-23.61,0.69c0.61,8.04,4.76,12.1,12.45,12.1c6.05,0,10.55-2.68,14.44-5.87l-0.35,8.12c-4.41,2.94-9.16,4.75-14.87,4.75    c-13.31,0-19.63-9.42-19.63-20.23c0-12.45,7.87-22.3,20.15-22.3c11.76,0,16.6,8.82,16.6,19.62L158.62,215.26z"/>
		<path class="st0" d="M175.92,219.84l-4.15-11.07c-1.9-5.1-4.06-10.89-5.79-14.61l8.73-1.12l8.9,27.41l3.89-11.24    c2.07-5.88,3.89-11.33,5.19-15.65l5.8-0.52l9.77,27.24l3.55-11.15c1.03-3.21,3.45-11.25,4.58-15.57c3.11,0,5.87-0.08,8.47-0.35    l-14.18,40.64l-5.1,0.6c-1.3-4.58-3.2-10.37-5.45-16.51l-4.58-12.28l-9.68,28.19l-5.19,0.6    C179.63,230.39,177.74,224.94,175.92,219.84"/>
		<path class="st0" d="M292.37,173.76l-37.17,52.65c3.28,0,8.21,0.08,11.58,0.08c8.82,0,17.9-0.08,23.69-0.26    c-0.43,2.42-0.6,4.84-0.69,7.61c-4.93-0.35-14.61-0.43-22.31-0.43c-9.42,0-18.07,0.09-24.03,0.43l-1.73-1.64l37.18-52.57    c-3.72-0.09-6.83-0.09-11.07-0.09c-8.47,0-15.74,0.09-22.22,0.17c0.26-2.16,0.35-4.84,0.35-7.52c7.69,0.26,11.67,0.44,21.96,0.44    c10.29,0,17.38-0.18,22.82-0.44L292.37,173.76z"/>
		<path class="st0" d="M323.58,209.38c-0.86-6.66-3.63-10.2-9.59-10.2c-6.4,0-10.47,4.66-11.59,10.81L323.58,209.38z M325.83,215.26    l-23.61,0.69c0.61,8.04,4.76,12.1,12.45,12.1c6.05,0,10.55-2.68,14.44-5.87l-0.35,8.12c-4.41,2.94-9.16,4.75-14.87,4.75    c-13.31,0-19.63-9.42-19.63-20.23c0-12.45,7.87-22.3,20.15-22.3c11.76,0,16.6,8.82,16.6,19.62L325.83,215.26z"/>
		<path class="st0" d="M359.29,218.72l0.17-3.89c-1.21-0.08-2.33-0.17-3.54-0.17c-9.68,0-13.06,3.54-13.06,7.87    c0,3.28,1.82,5.79,6.57,5.79C354.97,228.32,359.03,224.25,359.29,218.72 M335.17,222.96c0-8.05,7.18-13.4,21.01-13.4    c1.12,0,2.25,0.08,3.37,0.17l0.09-1.3c0.17-5.96-2.34-8.9-8.39-8.9c-3.98,0-8.21,1.73-10.98,3.81l-1.82-6.91    c4.32-2.51,8.99-3.89,14.09-3.89c10.29,0,15.13,6.23,14.88,15.39l-0.52,17.12c-0.08,2.42,0.61,3.46,2.51,3.46    c1.04,0,2.16-0.26,3.46-0.69l-0.78,5.53c-1.47,0.6-3.11,1.21-5.19,1.21c-3.28,0-6.31-2.25-6.74-6.74    c-2.34,4.06-6.92,6.91-12.45,6.91C340.1,234.71,335.17,230.04,335.17,222.96"/>
		<path class="st0" d="M377.88,233.51c0.43-3.72,0.6-9.08,0.6-14.18v-32.94c0-5.02-0.17-10.55-0.6-14.27    c3.11-0.26,6.31-0.6,8.91-1.12c-0.26,2.24-0.35,6.48-0.35,9.42v44.7c0,3.02,0.09,6.14,0.35,8.39L377.88,233.51L377.88,233.51z"/>
		<path class="st0" d="M417.99,218.72l0.17-3.89c-1.21-0.08-2.33-0.17-3.54-0.17c-9.68,0-13.06,3.54-13.06,7.87    c0,3.28,1.82,5.79,6.57,5.79C413.67,228.32,417.73,224.25,417.99,218.72 M393.87,222.96c0-8.05,7.18-13.4,21.01-13.4    c1.12,0,2.25,0.08,3.37,0.17l0.09-1.3c0.17-5.96-2.34-8.9-8.39-8.9c-3.98,0-8.21,1.73-10.98,3.81l-1.82-6.91    c4.32-2.51,8.99-3.89,14.09-3.89c10.29,0,15.13,6.23,14.88,15.39l-0.52,17.12c-0.08,2.42,0.61,3.46,2.51,3.46    c1.04,0,2.16-0.26,3.46-0.69l-0.78,5.53c-1.47,0.6-3.11,1.21-5.19,1.21c-3.28,0-6.31-2.25-6.74-6.74    c-2.34,4.06-6.92,6.91-12.45,6.91C398.8,234.71,393.87,230.04,393.87,222.96"/>
		<path class="st0" d="M463.29,233.51c0.43-3.72,0.6-9.68,0.6-14.7v-10.38c0-5.01-1.64-8.9-6.91-8.9c-5.71,0-11.85,5.62-11.85,10.8    v14.27c0,3.03,0.09,6.66,0.35,8.91h-8.82c0.35-3.72,0.52-9.68,0.52-14.7v-10.38c0-5.01-0.18-10.98-0.52-14.7    c3.03,0,5.19-0.18,7.78-0.43l0.61,7.69c3.28-5.36,9.16-8.47,14-8.47c8.65,0,12.79,5.36,12.79,14.35v17.72    c0,3.03,0.18,6.66,0.35,8.91L463.29,233.51L463.29,233.51z"/>
		<path class="st0" d="M487.42,214.31c0,9.26,5.53,13.83,11.85,13.83c4.24,0,8.21-2.33,10.11-6.05v-19.02    c-2.07-2.16-5.19-3.63-9.08-3.63C492.17,199.44,487.42,206.18,487.42,214.31 M509.38,195.38l-0.09-8.99    c0-5.02-0.09-10.55-0.52-14.27c3.11-0.26,6.31-0.61,8.9-1.12c-0.26,2.24-0.35,6.48-0.35,9.42v38.73c0,5.02,0.17,10.37,0.6,14.35    h-7.35l-0.6-4.32c-2.68,3.46-7.52,5.87-12.19,5.87c-11.24,0-18.33-8.73-18.33-19.79c0-12.71,8.82-22.74,20.67-22.74    C503.59,192.53,507.13,193.65,509.38,195.38"/>
		<path class="st0" d="M574.39,235.06c-17.73,0-31.3-13.74-31.3-31.12c0-18.16,14.1-32.68,32.94-32.68c6.48,0,14.44,2.33,19.19,5.44    l-2.42,7.78c-4.32-3.46-11.76-5.53-17.63-5.53c-14.01,0-23.35,10.29-23.35,24.29c0,15.39,10.72,24.21,23.52,24.21    c4.84,0,8.65-0.86,12.28-2.77v-10.81c0-1.3,0-3.63-0.18-5.19c-2.59-0.09-1.9-0.09-4.59-0.09c-4.32,0-6.83,0.09-11.76,0.26    c0.18-2.94,0.18-5.71,0-7.79c5.27,0.17,7.87,0.26,11.76,0.26c6.05,0,8.56-0.09,13.67-0.35c-0.43,3.38-0.6,15.39-0.6,20.93v6.74    C591.07,231.86,584.85,235.06,574.39,235.06"/>
		<path class="st0" d="M623.67,199.52c-7.35,0-12.1,6.23-12.1,14.01c0,9.6,4.67,14.52,11.76,14.52c7.61,0,12.1-6.31,12.1-14.18    C635.43,204.62,630.24,199.52,623.67,199.52 M622.89,235.06c-11.76,0-19.19-9.42-19.19-20.23c0-12.45,8.04-22.31,20.32-22.31    c11.85,0,19.28,9.43,19.28,20.23C643.3,225.21,635.26,235.06,622.89,235.06"/>
		<path class="st0" d="M656.27,219.84l-4.84-11.07c-2.25-5.1-4.67-10.89-6.66-14.61l8.65-1.12l11.67,29.14l5.02-13.4    c1.21-3.28,4.24-11.07,5.53-15.22c3.11,0,6.31-0.08,8.82-0.35l-16.86,40.64l-5.45,0.6C660.85,230.39,658.43,224.94,656.27,219.84"/>
		<path class="st0" d="M715.23,209.38c-0.86-6.66-3.63-10.2-9.59-10.2c-6.4,0-10.47,4.66-11.59,10.81L715.23,209.38z M717.48,215.26    l-23.6,0.69c0.6,8.04,4.76,12.1,12.45,12.1c6.05,0,10.55-2.68,14.44-5.87l-0.35,8.12c-4.41,2.94-9.16,4.75-14.87,4.75    c-13.31,0-19.63-9.42-19.63-20.23c0-12.45,7.87-22.3,20.15-22.3c11.76,0,16.6,8.82,16.6,19.62L717.48,215.26z"/>
		<path class="st0" d="M750.94,201.69c-5.7-1.04-12.88,1.99-12.88,8.04v14.87c0,3.02,0.09,6.66,0.35,8.9h-8.82    c0.43-3.72,0.52-9.68,0.52-14.7v-12.1c0-5.02-0.26-8.9-0.87-12.45c2.77-0.09,5.36-0.52,7.87-1.12l0.86,7.87    c3.28-5.36,7.52-7.69,14.01-8.47L750.94,201.69z"/>
		<path class="st0" d="M783.71,233.51c0.43-3.72,0.61-9.68,0.61-14.7v-10.38c0-5.01-1.64-8.9-6.92-8.9    c-5.71,0-11.85,5.62-11.85,10.8v14.27c0,3.03,0.09,6.66,0.35,8.91h-8.82c0.35-3.72,0.52-9.68,0.52-14.7v-10.38    c0-5.01-0.18-10.98-0.52-14.7c3.03,0,5.19-0.18,7.78-0.43l0.61,7.69c3.28-5.36,9.16-8.47,14-8.47c8.65,0,12.79,5.36,12.79,14.35    v17.72c0,3.03,0.18,6.66,0.35,8.91L783.71,233.51L783.71,233.51z"/>
		<path class="st0" d="M852.44,233.51c0.43-3.72,0.6-9.68,0.6-14.7v-10.38c0-5.01-1.38-8.9-6.66-8.9c-5.71,0-10.64,4.41-10.64,9.68    v15.39c0,3.03,0.09,6.66,0.35,8.91h-8.82c0.34-3.72,0.52-9.68,0.52-14.7v-10.38c0-5.01-1.13-8.9-6.4-8.9    c-5.63,0-10.64,4.41-10.64,9.68v15.39c0,3.03,0.09,6.66,0.35,8.91h-8.91c0.43-3.72,0.61-9.68,0.61-14.7v-10.38    c0-5.01-0.18-10.98-0.61-14.7c3.12,0,5.19-0.18,7.78-0.43l0.61,6.57c3.54-4.75,8.3-7.34,12.88-7.34c6.4,0,10.11,3.28,11.5,7.69    c2.68-4.41,7.52-7.69,13.4-7.69c8.65,0,12.62,5.36,12.62,14.35v17.72c0,3.03,0.09,6.66,0.35,8.91L852.44,233.51L852.44,233.51z"/>
		<path class="st0" d="M898,209.38c-0.86-6.66-3.63-10.2-9.59-10.2c-6.4,0-10.47,4.66-11.59,10.81L898,209.38z M900.25,215.26    l-23.6,0.69c0.61,8.04,4.76,12.1,12.45,12.1c6.05,0,10.55-2.68,14.44-5.87l-0.35,8.12c-4.41,2.94-9.16,4.75-14.87,4.75    c-13.31,0-19.63-9.42-19.63-20.23c0-12.45,7.87-22.3,20.15-22.3c11.76,0,16.6,8.82,16.6,19.62L900.25,215.26z"/>
		<path class="st0" d="M938.98,233.51c0.43-3.72,0.61-9.68,0.61-14.7v-10.38c0-5.01-1.64-8.9-6.92-8.9    c-5.71,0-11.85,5.62-11.85,10.8v14.27c0,3.03,0.09,6.66,0.35,8.91h-8.82c0.35-3.72,0.52-9.68,0.52-14.7v-10.38    c0-5.01-0.18-10.98-0.52-14.7c3.03,0,5.19-0.18,7.78-0.43l0.61,7.69c3.28-5.36,9.17-8.47,14.01-8.47    c8.65,0,12.79,5.36,12.79,14.35v17.72c0,3.03,0.18,6.66,0.35,8.91L938.98,233.51L938.98,233.51z"/>
		<path class="st0" d="M978.92,232.47c-1.82,1.47-5.27,2.25-7.87,2.25c-7.52,0-10.63-4.24-10.63-11.76V200.3h-7.18l2.08-6.91h5.19    l0.78-8.48l7.09-1.9v10.38h10.64c-0.17,1.9-0.26,3.8-0.26,6.91h-10.38v22.14c0,4.06,1.47,5.19,4.41,5.19    c2.16,0,4.75-0.95,6.48-2.08L978.92,232.47z"/>
		<path class="st0" d="M114.12,86.85c-5.97-0.09-11.15-0.17-17.9-0.17c-0.08,1.9-0.08,4.15-0.08,5.45v28.88    c0,3.28,0.08,10.03,0.35,12.45H78.07c0.43-4.15,0.6-15.22,0.6-20.84V99.73c0-3.2-0.08-8.56-0.26-13.05    c-6.74,0-12.36,0.08-18.24,0.17c0.26-4.41,0.35-9.86,0.35-14.7c8.39,0.26,16.77,0.43,26.89,0.43c10.2,0,18.85-0.17,27.41-0.43    C114.38,76.82,114.12,81.06,114.12,86.85"/>
		<path class="st0" d="M146.02,107.95c-0.35-4.66-2.25-7.44-6.14-7.44c-4.15,0-6.92,3.28-7.26,7.78L146.02,107.95z M157.01,114.43    l-24.47,0.52c0.34,5.27,3.72,8.22,10.03,8.22c6.84,0,11.85-2.08,16.26-4.41l-0.26,11.15c-5.27,3.11-11.07,4.93-17.9,4.93    c-15.82,0-23.78-9.68-23.78-21.79c0-13.75,9.77-23.17,23.52-23.17c13.66,0,19.8,9.33,19.8,20.92L157.01,114.43z"/>
		<path class="st0" d="M199.89,107.6V121c0,3.28,0.09,10.03,0.35,12.45H181.9c0.43-4.15,0.61-15.22,0.61-20.84v-19.1    c0-5.53-0.18-16.69-0.61-20.84c3.38,0,15.48-0.08,18.33-0.43c-0.26,2.51-0.35,9.42-0.35,12.8v12.97l7.69-10.29    c2.77-3.54,7.87-10.55,11.33-15.22h19.8l-23.95,29.05l14.79,18.42c2.42,3.03,8.12,9.94,10.72,13.06l-20.15,1.3L199.89,107.6z"/>
		<path class="st0" d="M263.86,119.36l0.18-3.98c-0.69-0.09-1.47-0.09-2.34-0.09c-5.19,0-7.26,2.33-7.26,5.36    c0,2.86,1.64,4.76,4.32,4.76C261.7,125.41,263.78,123.51,263.86,119.36 M277.35,83.39c-4.06-0.09-7.09-0.17-10.64-0.17H255.9    c-4.41,0-7.44,0.08-10.98,0.17c0.17-2.51,0.34-7,0.34-10.29c5.36,0.17,9.34,0.25,16.52,0.25c5.02,0,10.81-0.08,15.99-0.25    C277.52,76.22,277.35,80.02,277.35,83.39 M239.48,123.08c0-8.47,7.09-14.18,21.44-14.18c0.86,0,1.99,0.09,3.2,0.18l0.09-1.13    c0.09-3.63-1.55-5.62-6.4-5.62c-4.93,0-10.2,1.82-13.49,3.8l-1.81-11.24c4.67-2.77,11.85-5.02,18.85-5.02    c13.06,0,18.59,5.45,18.42,17.47l-0.35,13.83c-0.09,2.42,0.78,3.03,2.51,3.03c0.6,0,1.38-0.26,2.07-0.43l-0.6,9.16    c-2.77,1.04-5.01,1.56-8.12,1.56c-5.1,0-8.9-1.73-10.29-6.83c-2.42,4.24-7.61,6.83-12.8,6.83    C244.41,134.49,239.48,130.26,239.48,123.08"/>
		<path class="st0" d="M293.51,119.62l-4.15-11.24c-1.9-5.1-4.84-13.06-6.57-16.86c2.25,0,13.49-0.52,16-0.69l7,22.65l2.94-8.38    l4.84-13.83l10.64-0.35l7.61,22.65l2.77-8.73c0.26-0.78,4.15-12.54,4.41-13.57c5.97,0,10.21,0,15.05-0.26l-16.6,42.54l-11.67,0.43    c-1.39-4.33-3.28-9.51-5.27-15.13l-2.25-6.4l-8.13,21.1l-11.67,0.35C297.23,129.82,295.42,124.81,293.51,119.62"/>
		<path class="st0" d="M377.73,119.36l0.17-3.98c-0.69-0.09-1.47-0.09-2.34-0.09c-5.19,0-7.26,2.33-7.26,5.36    c0,2.86,1.64,4.76,4.32,4.76C375.56,125.41,377.64,123.51,377.73,119.36 M353.34,123.08c0-8.47,7.09-14.18,21.44-14.18    c0.86,0,1.99,0.09,3.2,0.18l0.09-1.13c0.09-3.63-1.56-5.62-6.4-5.62c-4.93,0-10.2,1.82-13.49,3.8l-1.82-11.24    c4.67-2.77,11.85-5.02,18.85-5.02c13.06,0,18.59,5.45,18.42,17.47l-0.35,13.83c-0.09,2.42,0.78,3.03,2.51,3.03    c0.61,0,1.38-0.26,2.07-0.43l-0.61,9.16c-2.77,1.04-5.02,1.56-8.12,1.56c-5.1,0-8.9-1.73-10.29-6.83    c-2.42,4.24-7.61,6.83-12.8,6.83C358.27,134.49,353.34,130.26,353.34,123.08"/>
		<path class="st0" d="M428.99,133.45c0.43-3.72,0.52-9.68,0.52-14.7v-9.08c0-5.02-0.95-7.35-4.49-7.35c-4.07,0-7.01,3.63-7.01,7.26    v14.95c0,3.03,0.09,6.66,0.35,8.91h-17.29c0.35-3.72,0.52-9.68,0.52-14.7v-12.97c0-5.01-0.17-10.2-0.52-13.92    c3.03,0,13.66-1.29,16.25-1.56l0.61,9.34c3.46-6.14,9.77-9.77,15.65-9.77c8.39,0,12.36,5.62,12.36,14.95v19.71    c0,3.03,0.17,6.66,0.35,8.91h-17.3V133.45z"/>
		<path class="st0" d="M474.3,119.36l0.17-3.98c-0.69-0.09-1.47-0.09-2.33-0.09c-5.19,0-7.26,2.33-7.26,5.36    c0,2.86,1.64,4.76,4.32,4.76C472.14,125.41,474.21,123.51,474.3,119.36 M449.91,123.08c0-8.47,7.09-14.18,21.44-14.18    c0.86,0,1.99,0.09,3.2,0.18l0.09-1.13c0.09-3.63-1.55-5.62-6.4-5.62c-4.93,0-10.2,1.82-13.49,3.8l-1.82-11.24    c4.67-2.77,11.85-5.02,18.85-5.02c13.06,0,18.59,5.45,18.42,17.47l-0.35,13.83c-0.09,2.42,0.78,3.03,2.51,3.03    c0.61,0,1.39-0.26,2.07-0.43l-0.61,9.16c-2.77,1.04-5.02,1.56-8.12,1.56c-5.1,0-8.9-1.73-10.29-6.83    c-2.42,4.24-7.61,6.83-12.8,6.83C454.84,134.49,449.91,130.26,449.91,123.08"/>
		<path class="st0" d="M527.55,132.5c-2.85,1.47-6.83,2.42-10.9,2.42c-9.51,0-15.65-3.37-15.65-15.82v-17.29h-7L495.99,91h5.19    l0.87-8.56l15.39-5.36V91h10.63c-0.17,1.9-0.26,7.69-0.26,10.81h-10.37v15.39c0,4.5,1.73,5.62,4.41,5.62    c2.16,0,4.32-0.78,6.05-1.82L527.55,132.5z"/>
		<path class="st0" d="M553.66,119.36l0.17-3.98c-0.69-0.09-1.47-0.09-2.33-0.09c-5.19,0-7.26,2.33-7.26,5.36    c0,2.86,1.64,4.76,4.32,4.76C551.5,125.41,553.58,123.51,553.66,119.36 M529.28,123.08c0-8.47,7.09-14.18,21.44-14.18    c0.86,0,1.99,0.09,3.2,0.18l0.09-1.13c0.09-3.63-1.55-5.62-6.4-5.62c-4.93,0-10.2,1.82-13.49,3.8l-1.82-11.24    c4.67-2.77,11.85-5.02,18.85-5.02c13.06,0,18.59,5.45,18.42,17.47l-0.35,13.83c-0.09,2.42,0.78,3.03,2.51,3.03    c0.61,0,1.39-0.26,2.07-0.43l-0.61,9.16c-2.77,1.04-5.02,1.56-8.12,1.56c-5.1,0-8.9-1.73-10.29-6.83    c-2.42,4.24-7.61,6.83-12.8,6.83C534.21,134.49,529.28,130.26,529.28,123.08"/>
		<path class="st0" d="M604.93,133.45c0.43-3.72,0.52-9.68,0.52-14.7v-9.08c0-5.02-0.95-7.35-4.49-7.35c-4.07,0-7.01,3.63-7.01,7.26    v14.95c0,3.03,0.09,6.66,0.35,8.91H577c0.35-3.72,0.52-9.68,0.52-14.7v-12.97c0-5.01-0.17-10.2-0.52-13.92    c3.03,0,13.66-1.29,16.25-1.56l0.61,9.34c3.46-6.14,9.77-9.77,15.65-9.77c8.39,0,12.36,5.62,12.36,14.95v19.71    c0,3.03,0.17,6.66,0.35,8.91h-17.29V133.45z"/>
		<path class="st0" d="M647.55,99.82c-3.29,0-5.45,2.25-5.45,6.4c0,4.84,2.25,7,5.36,7c3.28,0,5.36-2.33,5.36-6.57    C652.82,101.72,650.4,99.82,647.55,99.82 M640.54,137.17c-3.2,1.12-4.49,2.85-4.49,4.24c0,2.25,2.68,4.06,8.9,4.06    c6.66,0,10.98-2.6,10.98-5.19c0-1.9-1.99-2.68-7.87-2.94h-1.82C644.52,137.26,642.44,137.17,640.54,137.17 M647.11,121.87    c-2.68,0-5.19-0.26-7.35-0.78c-1.39,0.78-1.99,1.73-1.99,2.42c0,1.38,1.82,2.24,10.46,2.24h1.99c12.36,0,20.06,2.94,20.06,10.98    c0,9.08-10.38,17.38-26.72,17.38c-13.05,0-19.71-4.67-19.71-10.55c0-4.24,3.55-7.35,8.47-8.99c-3.2-1.38-5.36-3.98-5.36-7.18    c0-3.2,2.51-6.57,6.74-8.9c-3.98-2.6-6.31-6.48-6.31-11.5c0-9.77,8.47-17.12,20.58-17.12c2.85,0,5.45,0.43,7.69,1.13    c0.52-7.35,4.76-11.24,14.1-10.2l-0.43,11.32c-4.5-1.12-6.92-0.43-7.79,1.99c3.81,2.94,5.97,7.18,5.97,11.68    C667.52,115.47,658.87,121.87,647.11,121.87"/>
		<path class="st0" d="M694.75,119.36l0.18-3.98c-0.69-0.09-1.47-0.09-2.34-0.09c-5.19,0-7.26,2.33-7.26,5.36    c0,2.86,1.64,4.76,4.32,4.76C692.59,125.41,694.67,123.51,694.75,119.36 M670.37,123.08c0-8.47,7.09-14.18,21.44-14.18    c0.86,0,1.99,0.09,3.2,0.18l0.09-1.13c0.09-3.63-1.56-5.62-6.4-5.62c-4.93,0-10.2,1.82-13.49,3.8l-1.82-11.24    c4.67-2.77,11.85-5.02,18.85-5.02c13.06,0,18.59,5.45,18.42,17.47l-0.35,13.83c-0.09,2.42,0.78,3.03,2.51,3.03    c0.61,0,1.38-0.26,2.07-0.43l-0.61,9.16c-2.77,1.04-5.01,1.56-8.12,1.56c-5.1,0-8.9-1.73-10.29-6.83    c-2.42,4.24-7.61,6.83-12.8,6.83C675.3,134.49,670.37,130.26,670.37,123.08"/>
		<path class="st0" d="M754.84,101.29c-4.24,0-6.92,3.46-6.92,10.72c0,8.47,2.77,11.5,6.57,11.5c4.32,0,7-3.28,7-10.72    C761.5,104.06,758.56,101.29,754.84,101.29 M754.06,135.01c-13.4,0-22.05-9.43-22.05-21.53c0-13.74,9.25-23.6,23.17-23.6    c13.49,0,22.22,9.42,22.22,21.53C777.41,125.15,768.07,135.01,754.06,135.01"/>
		<path class="st0" d="M819.08,111.84H833l-7.01-18.76L819.08,111.84z M812.33,89.19c3.02-7.18,5.02-11.68,6.66-16.52l13.92-0.86    l18.94,43.92c2.25,5.36,5.53,12.36,7.96,17.73l-18.42,0.69l-4.67-11.59h-21.18c-1.13,2.85-3.63,9.69-4.15,10.89H793.4    L812.33,89.19z"/>
		<path class="st0" d="M883.06,101.29c-4.24,0-6.92,3.46-6.92,10.72c0,8.47,2.77,11.5,6.57,11.5c4.32,0,7-3.28,7-10.72    C889.71,104.06,886.77,101.29,883.06,101.29 M882.27,135.01c-13.4,0-22.04-9.43-22.04-21.53c0-13.74,9.25-23.6,23.17-23.6    c13.49,0,22.22,9.42,22.22,21.53C905.62,125.15,896.28,135.01,882.27,135.01"/>
		<path class="st0" d="M939.68,132.5c-2.85,1.47-6.83,2.42-10.9,2.42c-9.51,0-15.65-3.37-15.65-15.82v-17.29h-7L908.12,91h5.19    l0.87-8.56l15.39-5.36V91h10.64c-0.18,1.9-0.26,7.69-0.26,10.81h-10.37v15.39c0,4.5,1.73,5.62,4.41,5.62    c2.16,0,4.32-0.78,6.05-1.82L939.68,132.5z"/>
		<path class="st0" d="M971.15,107.95c-0.35-4.66-2.25-7.44-6.14-7.44c-4.15,0-6.92,3.28-7.26,7.78L971.15,107.95z M982.13,114.43    l-24.47,0.52c0.34,5.27,3.72,8.22,10.03,8.22c6.84,0,11.85-2.08,16.26-4.41l-0.26,11.15c-5.27,3.11-11.07,4.93-17.9,4.93    c-15.82,0-23.78-9.68-23.78-21.79c0-13.75,9.77-23.17,23.52-23.17c13.66,0,19.8,9.33,19.8,20.92L982.13,114.43z"/>
		<path class="st0" d="M1011.27,119.36l0.18-3.98c-0.69-0.09-1.47-0.09-2.34-0.09c-5.19,0-7.26,2.33-7.26,5.36    c0,2.86,1.64,4.76,4.32,4.76C1009.1,125.41,1011.18,123.51,1011.27,119.36 M986.88,123.08c0-8.47,7.09-14.18,21.44-14.18    c0.86,0,1.99,0.09,3.2,0.18l0.09-1.13c0.09-3.63-1.55-5.62-6.4-5.62c-4.93,0-10.2,1.82-13.49,3.8l-1.82-11.24    c4.67-2.77,11.85-5.02,18.85-5.02c13.06,0,18.59,5.45,18.42,17.47l-0.35,13.83c-0.09,2.42,0.78,3.03,2.51,3.03    c0.61,0,1.39-0.26,2.07-0.43l-0.61,9.16c-2.77,1.04-5.01,1.56-8.12,1.56c-5.1,0-8.9-1.73-10.29-6.83    c-2.42,4.24-7.61,6.83-12.8,6.83C991.81,134.49,986.88,130.26,986.88,123.08"/>
		<path class="st0" d="M1065.65,104.92c-7.26-0.78-14.1,0.95-14.1,8.99v10.63c0,3.03,0.09,6.66,0.35,8.91h-17.29    c0.43-3.72,0.52-9.68,0.52-14.7v-13.4c0-5.02-0.26-9.69-0.6-13.4c2.94,0,13.66-1.39,16.25-1.73l0.69,10.72    c2.42-6.23,7.52-10.47,15.22-11.07L1065.65,104.92z"/>
		<path class="st0" d="M1090.37,101.29c-4.24,0-6.92,3.46-6.92,10.72c0,8.47,2.77,11.5,6.57,11.5c4.32,0,7-3.28,7-10.72    C1097.03,104.06,1094.09,101.29,1090.37,101.29 M1089.59,135.01c-13.4,0-22.05-9.43-22.05-21.53c0-13.74,9.26-23.6,23.17-23.6    c13.49,0,22.22,9.42,22.22,21.53C1112.94,125.15,1103.6,135.01,1089.59,135.01"/>
		<path class="st0" d="M1139.05,119.36l0.17-3.98c-0.69-0.09-1.47-0.09-2.34-0.09c-5.19,0-7.26,2.33-7.26,5.36    c0,2.86,1.64,4.76,4.32,4.76C1136.88,125.41,1138.96,123.51,1139.05,119.36 M1114.66,123.08c0-8.47,7.09-14.18,21.44-14.18    c0.86,0,1.99,0.09,3.2,0.18l0.09-1.13c0.09-3.63-1.56-5.62-6.4-5.62c-4.93,0-10.2,1.82-13.49,3.8l-1.82-11.24    c4.67-2.77,11.85-5.02,18.85-5.02c13.06,0,18.59,5.45,18.42,17.47l-0.35,13.83c-0.09,2.42,0.78,3.03,2.51,3.03    c0.61,0,1.38-0.26,2.07-0.43l-0.61,9.16c-2.77,1.04-5.02,1.56-8.12,1.56c-5.1,0-8.9-1.73-10.29-6.83    c-2.42,4.24-7.61,6.83-12.8,6.83C1119.59,134.49,1114.66,130.26,1114.66,123.08"/>
	</g>
</g>
<script xmlns="" src="https://nzsuperfund.nz/themes/quicksilver/dist/images/svg/moz-extension://d58eb4d4-4481-9340-b0e5-4ac5bbfe2f66/scripts/custom_elements.js"/></svg>