<svg version="1.1" id="Layer_1" xmlns="http://www.w3.org/2000/svg" x="0" y="0" viewBox="0 0 485.8 486.8" xml:space="preserve"><style>.st0{fill:#3a5150}.st1{fill:#fff}</style><circle class="st0" cx="243.1" cy="243.4" r="221.5"/><circle class="st1" cx="243.1" cy="243.4" r="198.5"/><path class="st0" d="M347.5 136.7H243.1v-85c-105.8 0-191.7 85.8-191.7 191.7s85.8 191.7 191.7 191.7v-68.7c25.1 0 93.7.1 102.7 0 11-.2 7.6-9 7.6-9s-7-17.2-9.8-23.5-11.3-4.9-11.3-4.9h-89.1v-13.2h104.4c6.6 0 12-5.4 12-12V148.7c-.1-6.6-5.5-12-12.1-12zm-1.8 160.1c0 2.8-2.3 5.1-5.1 5.1h-97.5V150.6h97.5c2.8 0 5.1 2.3 5.1 5.1v141.1z"/><path class="st1" d="M237.7 317.8h-16c-1.1 0-2-.9-2-2s.9-2 2-2h16c1.1 0 2 .9 2 2s-.9 2-2 2zm-27 0h-16c-1.1 0-2-.9-2-2s.9-2 2-2h16c1.1 0 2 .9 2 2s-.9 2-2 2zm-26 0h-16c-1.1 0-2-.9-2-2s.9-2 2-2h16c1.1 0 2 .9 2 2s-.9 2-2 2zm-26 0h-16c-1.1 0-2-.9-2-2s.9-2 2-2h16c1.1 0 2 .9 2 2s-.9 2-2 2zm-26 0c-5.1-.2-9.2-4.5-9.2-9.6v-4.7c0-1.1.9-2 2-2s2 .9 2 2v4.7c0 2.9 2.4 5.4 5.2 5.5 1.1 0 2 1 1.9 2.1.1 1.1-.8 2-1.9 2zm-7.1-25.7c-1.1 0-2-.9-2-2v-16.3c0-1.1.9-2 2-2s2 .9 2 2v16.3c0 1.1-.9 2-2 2zm0-27.4c-1.1 0-2-.9-2-2v-16.3c0-1.1.9-2 2-2s2 .9 2 2v16.3c0 1.1-.9 2-2 2zm0-28.4c-1.1 0-2-.9-2-2V218c0-1.1.9-2 2-2s2 .9 2 2v16.3c0 1.1-.9 2-2 2zm0-28.4c-1.1 0-2-.9-2-2v-16.3c0-1.1.9-2 2-2s2 .9 2 2v16.3c0 1.1-.9 2-2 2zm0-27.4c-1.1 0-2-.9-2-2v-16.3c0-1.1.9-2 2-2s2 .9 2 2v16.3c0 1.1-.9 2-2 2zm0-29.4c-1.1 0-2-.9-2-2v-2.7c0-5.3 4.2-9.6 9.4-9.6h1.6c1.1 0 2 .9 2 2s-.9 2-2 2H133c-3 0-5.4 2.5-5.4 5.5v2.7c0 1.2-.9 2.1-2 2.1zm111-10.2h-16c-1.1 0-2-.9-2-2s.9-2 2-2h16c1.1 0 2 .9 2 2s-.9 2-2 2zm-25 0h-16c-1.1 0-2-.9-2-2s.9-2 2-2h16c1.1 0 2 .9 2 2s-.9 2-2 2zm-26 0h-16c-1.1 0-2-.9-2-2s.9-2 2-2h16c1.1 0 2 .9 2 2s-.9 2-2 2zm-26 0h-16c-1.1 0-2-.9-2-2s.9-2 2-2h16c1.1 0 2 .9 2 2s-.9 2-2 2zM251.3 343.5l-.6-6c-.1-.7-.7-1.3-1.5-1.3H243v9h6.8c.9-.1 1.6-.9 1.5-1.7zM254.8 337.8l.7 5.9c.1.8.7 1.3 1.5 1.3h12.3c.9 0 1.6-.8 1.5-1.7l-.9-5.9c-.1-.8-.8-1.3-1.5-1.3h-12.1c-.9 0-1.6.8-1.5 1.7zM274.5 337.9l.9 5.9c.1.7.8 1.3 1.5 1.3h12.2c1 0 1.7-.9 1.5-1.9l-1.5-5.9c-.2-.7-.8-1.2-1.5-1.2H276c-1 0-1.7.9-1.5 1.8zM293.9 338.2l1.6 5.7c.2.7.8 1.2 1.6 1.2h12.1c1.1 0 1.8-1 1.5-2.1l-1.7-5.7c-.2-.7-.8-1.2-1.5-1.2h-12.1c-1 0-1.8 1-1.5 2.1zM313.3 338.4l1.8 5.5c.2.7.9 1.2 1.6 1.2h12.5c1.2 0 2-1.2 1.6-2.3l-1.9-5.5c-.2-.7-.9-1.2-1.6-1.2h-12.4c-1.2 0-2 1.2-1.6 2.3zM317.1 350.6l2.4 6.8c.2.6.8 1 1.4 1h14.4c1 0 1.7-1.1 1.3-2l-3.1-6.8c-.2-.5-.8-.9-1.3-.9h-13.7c-1-.1-1.7.9-1.4 1.9zM312.8 349.7l2.2 6.7c.3 1-.5 1.9-1.5 1.9H243v-9.7h68.3c.8 0 1.4.5 1.5 1.1zM151.7 333.1h-3.6c-2.9 0-5.6 1.6-6.9 4.2l-2.3 4.5c-.5 1-.1 2.2.9 2.7.3.2.6.2.9.2.7 0 1.4-.4 1.8-1.1l2.3-4.5c.7-1.3 1.9-2 3.4-2h3.6c1.1 0 2-.9 2-2s-1-2-2.1-2zM179.2 361.2h-15c-1.1 0-2 .9-2 2s.9 2 2 2h15c1.1 0 2-.9 2-2s-.9-2-2-2zM221.7 337.1h15c1.1 0 2-.9 2-2s-.9-2-2-2h-15c-1.1 0-2 .9-2 2s.9 2 2 2zM150.2 361.2h-9.7c-2.3 0-3.8-2-3.8-3.8 0-.5.1-1 .3-1.4.4-1-.1-2.2-1.1-2.6-1-.4-2.2.1-2.6 1.1-.4 1-.6 2-.6 3 0 4.3 3.5 7.8 7.8 7.8h9.7c1.1 0 2-.9 2-2s-.9-2.1-2-2.1zM208.2 361.2h-15c-1.1 0-2 .9-2 2s.9 2 2 2h15c1.1 0 2-.9 2-2s-.9-2-2-2zM236.2 361.2h-15c-1.1 0-2 .9-2 2s.9 2 2 2h15c1.1 0 2-.9 2-2s-.9-2-2-2zM192.7 337.1h15c1.1 0 2-.9 2-2s-.9-2-2-2h-15c-1.1 0-2 .9-2 2s.9 2 2 2zM180.7 333.1h-15c-1.1 0-2 .9-2 2s.9 2 2 2h15c1.1 0 2-.9 2-2s-.9-2-2-2z"/><script/></svg>